<?xml version="1.0" encoding="UTF-8" standalone="no"?>
<!DOCTYPE svg PUBLIC "-//W3C//DTD SVG 1.1//EN" "http://www.w3.org/Graphics/SVG/1.1/DTD/svg11.dtd">
<svg width="100%" height="100%" viewBox="0 0 38 38" version="1.1" xmlns="http://www.w3.org/2000/svg" xmlns:xlink="http://www.w3.org/1999/xlink" xml:space="preserve" xmlns:serif="http://www.serif.com/" style="fill-rule:evenodd;clip-rule:evenodd;stroke-linejoin:round;stroke-miterlimit:2;">
    <g transform="matrix(1,0,0,1,-88.9304,-1008.3)">
        <g id="codepen" transform="matrix(0.0729333,0,0,0.0729333,107.601,1026.97)">
            <g transform="matrix(1,0,0,1,-256,-256)">
                <clipPath id="_clip1">
                    <rect x="0" y="0" width="512" height="512"/>
                </clipPath>
                <g clip-path="url(#_clip1)">
                    <path d="M512,162.091C511.061,156.459 510.293,152.064 504.32,148.416C260.075,3.541 263.531,-7.253 247.68,2.325C62.571,117.397 11.051,143.061 3.648,152.021C-3.072,158.912 0,169.472 0,329.045C-0.448,347.2 165.184,445.568 245.739,508.331C252.843,513.387 261.781,512.576 267.136,507.712C506.581,337.984 512.405,344.811 512,329.045C512,329.045 511.744,159.936 512,162.091ZM480,300.565L397.312,250.24L480,192.704L480,300.565ZM367.424,232.043L272,173.973L272,44.48L466.688,162.987L367.424,232.043ZM256,309.547L173.312,252.011L256,201.685L338.688,252.011L256,309.547ZM240,44.459L240,174.037C202.901,197.056 171.541,216.277 145.045,232.363L45.312,162.987L240,44.459ZM115.051,250.496C75.072,274.539 48.96,289.813 32,299.989L32,192.704L115.051,250.496ZM143.424,270.208L240,337.387L240,465.365L45.312,329.92L143.424,270.208ZM272,465.387L272,337.408L368.576,270.229L466.688,329.941L272,465.387Z" style="fill:rgb(7,79,150);fill-rule:nonzero;"/>
                </g>
            </g>
        </g>
    </g>
</svg>
