<svg xmlns="http://www.w3.org/2000/svg" xmlns:xlink="http://www.w3.org/1999/xlink" width="504" height="210" viewBox="0 0 504 210">
  <defs>
    <rect id="rect-1" width="504" height="210" x="0" y="0"/>
    <rect id="rect-2" width="504" height="210" x="0" y="0"/>
    <mask id="mask-3" maskContentUnits="userSpaceOnUse" maskUnits="userSpaceOnUse">
      <rect width="504" height="210" x="0" y="0" fill="black"/>
      <use fill="white" xlink:href="#rect-2"/>
    </mask>
    <rect id="rect-4" width="503.96" height="210.966" x="0" y="-.966"/>
  </defs>
  <g>
    <use fill="none" xlink:href="#rect-2"/>
    <g mask="url(#mask-3)">
      <path fill="rgb(0,27,53)" fill-rule="evenodd" d="M55.64416415 209.89532982H0V.5192577h72.37667387l70.89140388 153.7137015V.51925771h55.64440605l23.32526998.04051351-.0399136-.04051351s49.64768898-1.48533144 77.14574513 12.67740598c26.17485961 13.47991842 63.39853132 52.92309041 63.39853132 52.92309041L426.81434125.5192577h77.14574514L401.65183585 105.2689876l102.18609072 104.62634222h-77.14574514l-49.43239741-50.6529789-14.51766739-14.87547978-.002419.00369424-75.5588769-77.388329c-.05805615-.05996985-.11732181-.11957028-.17537797-.17904757l-.00846652-.0092356c-9.58652268-9.7635113-23.0724838-15.62257859-38.51542116-15.62257859h-41.98185746v108.01186843l41.98185746.05910786c30.67542116 0 53.63300216-23.11979576 53.63300216-54.03542657 0-5.03599024-1.18047517-8.9914148-2.84958964-12.75855616-.31084233-.7393409-.06168466-1.59874466.59265659-2.04919586.65313175-.45057434 1.5300216-.36486793 2.0876026.20367586 16.92215982 17.19669496 56.82971921 57.82768879 56.82971921 57.82768879s-31.00198704 31.61408877-46.35663067 47.24073102C298.33969763 210 280.78738661 209.89532982 280.78738661 209.89532982h-53.9111879l-.04717063-.04925656-27.91654428.04925656h-91.12615119L55.64416415 96.8660655v113.02926432z"/>
    </g>
  </g>
</svg>
