<?xml version="1.0" encoding="UTF-8" standalone="no"?>
<!DOCTYPE svg PUBLIC "-//W3C//DTD SVG 1.1//EN" "http://www.w3.org/Graphics/SVG/1.1/DTD/svg11.dtd">
<svg width="100%" height="100%" viewBox="0 0 4167 1709" version="1.1" xmlns="http://www.w3.org/2000/svg" xmlns:xlink="http://www.w3.org/1999/xlink" xml:space="preserve" xmlns:serif="http://www.serif.com/" style="fill-rule:evenodd;clip-rule:evenodd;stroke-linejoin:round;stroke-miterlimit:2;">
    <path d="M460.058,1704.49L0,1704.49L0,4.2L598.4,4.2L1184.52,1252.47L1184.52,4.2L1644.58,4.2L1837.43,4.529L1837.1,4.2C1837.1,4.2 2247.58,-7.862 2474.93,107.15C2691.34,216.617 2999.1,536.925 2999.1,536.925L3528.84,4.2L4166.67,4.2L3320.8,854.846L4165.66,1704.49L3527.83,1704.49L3119.13,1293.15L2999.1,1172.35L2999.08,1172.38L2374.37,543.929C2373.89,543.442 2373.4,542.958 2372.92,542.475L2372.85,542.4C2293.59,463.113 2182.09,415.533 2054.41,415.533L1707.31,415.533L1707.31,1292.67L2054.41,1293.15C2308.03,1293.15 2497.84,1105.4 2497.84,854.342C2497.84,813.446 2488.08,781.325 2474.28,750.733C2471.71,744.729 2473.77,737.75 2479.18,734.092C2484.58,730.433 2491.83,731.129 2496.44,735.746C2636.35,875.396 2966.3,1205.35 2966.3,1205.35C2966.3,1205.35 2709.98,1462.08 2583.03,1588.98C2466.63,1705.34 2321.51,1704.49 2321.51,1704.49L1875.78,1704.49L1875.39,1704.09L1644.58,1704.49L891.162,1704.49L460.058,786.608L460.058,1704.49Z" style="fill:rgb(4,0,29);"/>
</svg>
